<svg xmlns="http://www.w3.org/2000/svg" viewBox="0 0 240 240">
  <defs>
    <linearGradient id="g1" x1="0" y1="0" x2="1" y2="1"><stop offset="0" stop-color="#00E5FF"/><stop offset="1" stop-color="#7C3AED"/></linearGradient>
    <linearGradient id="g1b" x1="0" y1="1" x2="1" y2="0"><stop offset="0" stop-color="#FF00E5"/><stop offset="1" stop-color="#00E5FF"/></linearGradient>
    <filter id="glow"><feGaussianBlur stdDeviation="3"/><feMerge><feMergeNode in="blur"/><feMergeNode in="SourceGraphic"/></feMerge></filter>
  </defs>
  <rect x="30" y="30" width="6" height="6" rx="1" fill="#00E5FF" opacity=".2"/>
  <rect x="42" y="30" width="6" height="6" rx="1" fill="#7C3AED" opacity=".2"/>
  <rect x="54" y="42" width="6" height="6" rx="1" fill="#FF00E5" opacity=".2"/>
  <rect x="30" y="42" width="6" height="6" rx="1" fill="#FF00E5" opacity=".2"/>
  <rect x="54" y="30" width="6" height="6" rx="1" fill="#7C3AED" opacity=".2"/>
  <rect x="180" y="198" width="6" height="6" rx="1" fill="#FF00E5" opacity=".2"/>
  <rect x="192" y="186" width="6" height="6" rx="1" fill="#00E5FF" opacity=".2"/>
  <rect x="204" y="198" width="6" height="6" rx="1" fill="#7C3AED" opacity=".2"/>
  <path d="M20 120 Q60 60 120 100 Q180 140 220 80" fill="none" stroke="url(#g1)" stroke-width="2" opacity=".5" stroke-dasharray="2 4"/>
  <path d="M20 140 Q60 180 120 140 Q180 100 220 160" fill="none" stroke="url(#g1b)" stroke-width="1.5" opacity=".4" stroke-dasharray="8 4"/>
  <polygon points="120,45 165,70 165,120 120,145 75,120 75,70" fill="none" stroke="url(#g1)" stroke-width="3" filter="url(#glow)"/>
  <polygon points="108,75 108,115 138,95" fill="url(#g1)" opacity=".9"/>
  <circle cx="165" cy="95" r="3" fill="#FF00E5" filter="url(#glow)"/>
  <circle cx="75" cy="95" r="2.5" fill="#00E5FF" filter="url(#glow)"/>
  <circle cx="120" cy="40" r="3" fill="#7C3AED" filter="url(#glow)"/>
  <circle cx="120" cy="150" r="2" fill="#FF00E5" filter="url(#glow)"/>
  <text x="120" y="200" text-anchor="middle" font-family="sans-serif" font-size="18" font-weight="900" fill="url(#g1)" letter-spacing="4">波 比</text>
  <text x="120" y="222" text-anchor="middle" font-family="sans-serif" font-size="10" font-weight="600" fill="#7C3AED" letter-spacing="3">BOBI GAME</text>
</svg>
